<?xml version="1.0" encoding="utf-8"?>
<!-- Generator: Adobe Illustrator 25.4.1, SVG Export Plug-In . SVG Version: 6.00 Build 0)  -->
<svg version="1.1" id="레이어_1" xmlns="http://www.w3.org/2000/svg" xmlns:xlink="http://www.w3.org/1999/xlink" x="0px"
	 y="0px" viewBox="0 0 359.3 376.1" style="enable-background:new 0 0 359.3 376.1;" xml:space="preserve">
<path d="M254.2,240.7c2.6-2.6,5.1-5.3,7.4-8.2c14.8-18.1,23.6-41.3,23.6-66.5c-0.1-58.3-47.3-105.5-105.5-105.5
	c-58.3,0-105.5,47.2-105.5,105.5c0,25.1,8.8,48.2,23.5,66.3c2.3,2.9,4.8,5.7,7.5,8.3C43.1,264,0,315.9,0,376.1h359.3
	C359.2,316,316.2,264.1,254.2,240.7z"/>
<path d="M101,77.4c-1.8-3.5-2.7-7.2-2.7-11.1c0-23.9,36.4-43.3,81.4-43.3S261,42.4,261,66.3c0,3.8-0.9,7.5-2.7,11.1
	c0.2,0.4,0.4,0.8,0.6,1.2c1.2,2.6,4.8,2.7,6,0.2c1.9-4,2.9-8.2,2.9-12.5c0-27.2-39.4-49.2-88.1-49.2s-88.1,22-88.1,49.2
	c0,4.3,1,8.5,2.9,12.5c1.2,2.5,4.8,2.4,6-0.2C100.6,78.2,100.8,77.8,101,77.4z"/>
</svg>
