<?xml version="1.0" encoding="utf-8"?>
<!-- Generator: Adobe Illustrator 25.4.1, SVG Export Plug-In . SVG Version: 6.00 Build 0)  -->
<svg version="1.1" id="레이어_1" xmlns="http://www.w3.org/2000/svg" xmlns:xlink="http://www.w3.org/1999/xlink" x="0px"
	 y="0px" viewBox="0 0 465.8 358.9" style="enable-background:new 0 0 465.8 358.9;" xml:space="preserve">
<polygon points="142.9,305.2 142.9,316.3 142.9,350.9 142.9,358.9 187.4,316.3 199,305.2 "/>
<path d="M416.3,0H49.5C22.2,0,0,22.2,0,49.5v217.3c0,27.4,22.2,49.5,49.5,49.5h366.8c27.4,0,49.5-22.2,49.5-49.5V49.5
	C465.8,22.2,443.6,0,416.3,0z M142.9,179.1c-11.6,0-21-9.4-21-21s9.4-21,21-21c11.6,0,21,9.4,21,21S154.5,179.1,142.9,179.1z
	 M232.9,179.1c-11.6,0-21-9.4-21-21s9.4-21,21-21c11.6,0,21,9.4,21,21S244.5,179.1,232.9,179.1z M322.9,179.1c-11.6,0-21-9.4-21-21
	s9.4-21,21-21c11.6,0,21,9.4,21,21S334.5,179.1,322.9,179.1z"/>
</svg>
